PathFileType	4	(X/Y/Z)	C:/Users/opensim2020/Desktop/walking_exp_matlab/subject06_cal10_run.trc																																																																																																																																																	
DataRate	CameraRate	NumFrames	NumMarkers	Units	OrigDataRate	OrigDataStartFrame	OrigNumFrames																																																																																																																																													
100	100	7	49	mm	100	242	118																																																																																																																																													
Frame#	Time	LKNE			RTIB			RFRM			RWRA			LTHI			RKNE			RELB			RFHD			LWRA			RUPA			STRN			RASI			CLAV			RSHO			LASI			RTHI			RBHD			LBHD			C7			RWRB			RFIN			RTOE			LSHO			RBAK			LTIB			RANK			LFIN			LANK			RHEE			T10			LHEE			LTOE			LFHD			LPSI			RPSI			LUPA			LELB			LFRM			LWRB			*39			*40			*41			*42			*43			*44			*45			*46			*47			*48		
		X1	Y1	Z1	X2	Y2	Z2	X3	Y3	Z3	X4	Y4	Z4	X5	Y5	Z5	X6	Y6	Z6	X7	Y7	Z7	X8	Y8	Z8	X9	Y9	Z9	X10	Y10	Z10	X11	Y11	Z11	X12	Y12	Z12	X13	Y13	Z13	X14	Y14	Z14	X15	Y15	Z15	X16	Y16	Z16	X17	Y17	Z17	X18	Y18	Z18	X19	Y19	Z19	X20	Y20	Z20	X21	Y21	Z21	X22	Y22	Z22	X23	Y23	Z23	X24	Y24	Z24	X25	Y25	Z25	X26	Y26	Z26	X27	Y27	Z27	X28	Y28	Z28	X29	Y29	Z29	X30	Y30	Z30	X31	Y31	Z31	X32	Y32	Z32	X33	Y33	Z33	X34	Y34	Z34	X35	Y35	Z35	X36	Y36	Z36	X37	Y37	Z37	X38	Y38	Z38	X39	Y39	Z39	X40	Y40	Z40	X41	Y41	Z41	X42	Y42	Z42	X43	Y43	Z43	X44	Y44	Z44	X45	Y45	Z45	X46	Y46	Z46	X47	Y47	Z47	X48	Y48	Z48	X49	Y49	Z49
																																																																																																																																																				
74	0.73	168.38756	444.84796	-685.19049	418.39539	348.17645	-601.09772	536.23419	1069.16345	-663.86212	440.54303	1057.05322	-765.52966	130.00058	604.05518	-663.03943	417.33728	482.3862	-799.56995	565.05225	1143.79944	-590.27893	316.9903	1613.13635	-782.83496	106.35281	1103.15955	-789.88104	522.9295	1243.70691	-611.98285	258.92944	1144.11841	-795.64264	397.20227	909.91663	-721.38409	249.6144	1327.45117	-775.05615	403.03217	1377.30896	-718.89587	179.61995	905.65759	-726.73413	447.23108	597.60046	-747.37244	299.6319	1555.55249	-654.84076	170.98409	1557.85291	-669.31158	236.21333	1411.62708	-667.35535	478.40509	1001.7533	-760.73193	451.42761	1011.91895	-835.54614	396.15359	132.22832	-485.84155	85.37012	1361.25854	-721.28973	317.99652	1257.93909	-574.39264	189.7359	218.40416	-565.35541	385.49353	273.14917	-432.37454	134.88278	1062.62891	-871.02283	243.15103	74.30252	-479.34512	341.32104	290.17874	-387.50165	273.89188	1095.15552	-590.60065	279.80301	80.39775	-427.86609	273.59622	32.90902	-611.93304	185.07956	1621.06055	-798.16534	203.01654	962.25751	-574.0462	371.86154	956.59802	-577.79962	-8.69979	1195.29724	-650.61688	-40.31792	1105.37073	-610.30939	14.73798	1050.46313	-713.60431	93.21835	1033.77686	-796.23682							230.93965	689.16156	1654.38843																					 
75	0.74	169.05432	441.00104	-703.17963	421.07031	351.69638	-668.47955	539.59534	1076.06238	-686.86407	447.56497	1064.12244	-792.46271	132.11232	601.547	-688.21857	419.36862	497.43973	-858.19672	565.31165	1151.94727	-613.14673	318.24835	1614.77161	-819.76648	111.67702	1112.84753	-836.21887	521.19696	1250.55286	-638.08771	261.77292	1145.26526	-833.3067	399.00958	913.06287	-757.30151	252.5105	1328.38171	-813.1723	403.89951	1379.29346	-751.79022	180.49458	904.58868	-763.08661	449.36792	608.70667	-798.29877	300.41257	1556.64868	-692.05267	171.89398	1558.0874	-707.28186	236.47183	1412.04053	-704.96442	484.49625	1008.51935	-786.0257	460.52054	1018.67609	-862.29065	399.75583	128.52771	-567.36713	87.40865	1363.26318	-763.164	314.84546	1257.95923	-610.63855	189.85683	220.63014	-574.61603	387.58542	265.12341	-504.60709	143.40872	1077.16846	-918.16888	241.52394	80.65545	-481.53885	342.9964	278.8721	-458.72705	271.48978	1095.61987	-628.19843	277.5636	89.17794	-430.94418	273.47067	32.82632	-611.79651	186.34624	1621.81946	-835.85413	202.71086	962.82922	-611.78357	370.87454	958.70758	-615.10144	-9.40276	1196.25073	-697.90436	-41.27134	1104.72803	-662.76154	18.35233	1055.59985	-766.00269	99.76273	1043.8468	-846.85364							231.09915	726.43701	1655.02087																					 
76	0.75	169.51465	439.88583	-722.52747	423.02316	356.0322	-734.93213	541.95758	1086.22131	-710.80548	453.29245	1073.61145	-819.76605	133.80722	601.86591	-715.07318	421.02487	514.81183	-914.18195	564.84869	1161.90161	-636.78522	319.80524	1618.19165	-857.64307	116.35861	1124.83228	-881.30481	519.51434	1259.05981	-665.41992	264.87549	1148.22729	-870.94952	399.52536	918.46783	-795.0614	255.68849	1331.2478	-851.16931	404.90936	1382.9939	-784.4848	180.4971	905.12671	-800.98187	451.1322	621.18738	-847.20953	301.74442	1560.02649	-729.65771	173.27754	1560.52087	-745.27698	236.79173	1414.53577	-743.0235	490.17636	1018.18872	-812.16663	467.95789	1028.27881	-889.35437	401.94601	125.35314	-650.47296	89.61708	1366.9032	-804.46533	312.61224	1260.09351	-647.35339	190.01875	225.28883	-585.48779	388.80292	256.71368	-577.78711	151.88908	1093.78333	-963.10895	239.02171	89.77706	-485.72046	343.91855	266.66922	-531.2843	268.99857	1097.80005	-666.53442	274.66199	101.14073	-435.52612	273.18903	32.88411	-612.18866	187.62781	1624.25928	-873.84277	201.70393	964.6767	-650.57043	369.93185	963.12421	-652.69452	-9.32895	1198.76196	-745.64563	-41.96934	1106.36865	-714.28516	21.98635	1063.24023	-817.17224	106.42198	1056.12292	-895.65692							231.82353	764.30164	1657.87561																					 
77	0.76	170.02119	441.89731	-743.45477	424.19836	360.70087	-800.30011	543.11096	1098.18701	-735.45728	457.64465	1084.56067	-847.41492	134.83289	604.94659	-745.07642	422.50723	533.68445	-967.07782	563.47858	1172.75415	-661.52942	321.07614	1623.08582	-895.48535	120.50896	1138.37915	-925.21362	518.16278	1268.4574	-694.13647	268.1825	1152.99292	-908.20459	399.06281	924.93945	-834.16058	258.90668	1335.8949	-889.07135	405.98566	1388.3844	-817.57452	180.04691	907.75	-840.00299	452.5611	634.69049	-894.41302	303.603	1565.32141	-767.69122	175.10149	1565.01575	-783.03925	237.50739	1419.00159	-781.25397	495.08633	1029.85901	-839.48853	474.38968	1039.81458	-917.40765	402.67819	122.97884	-734.50006	92.01514	1372.24487	-845.59753	310.74997	1264.39429	-683.73199	188.80405	233.09088	-597.78436	389.14856	248.25824	-652.05359	159.14288	1111.87537	-1007.24933	236.00282	101.13559	-492.44693	343.63501	254.355	-604.78271	266.75809	1101.67517	-705.36798	271.09695	115.54794	-443.31454	272.9295	32.68021	-613.4483	189.14244	1628.46765	-912.04907	200.32413	967.63525	-690.52075	368.72128	969.08014	-691.05182	-8.68543	1202.73425	-793.73987	-42.30387	1109.87634	-764.93317	25.37856	1072.69482	-867.27747	113.27151	1069.99658	-942.2619							233.23016	802.61487	1662.73779																					 
78	0.77	170.44902	446.87833	-766.216	424.73532	365.1622	-864.64948	543.47717	1110.93481	-761.64954	461.37259	1096.45117	-876.09888	135.52339	609.70508	-777.53906	423.82626	552.51642	-1016.87555	561.45361	1184.19507	-687.48663	322.55835	1629.32837	-933.86749	123.89993	1153.41895	-968.27643	517.01617	1278.28455	-723.88489	271.49225	1159.38965	-945.97888	399.04633	933.08624	-874.14923	262.03833	1342.19421	-926.83936	407.06247	1394.93909	-851.81848	179.25632	912.44733	-880.48987	453.42114	648.75049	-939.98596	305.84747	1572.29321	-806.0437	177.25273	1571.40393	-821.16327	238.34868	1425.29138	-819.14099	499.47995	1042.6167	-867.42865	479.86295	1052.3678	-946.20544	401.50485	121.46313	-818.85236	94.79706	1378.95715	-886.45074	309.06808	1270.35522	-720.83533	187.43712	243.78502	-612.12256	388.18344	239.60246	-726.66248	166.59514	1130.27808	-1049.36206	232.54259	114.62201	-502.49432	342.68182	242.18846	-679.11115	264.80399	1107.2854	-744.73993	267.12131	132.01709	-454.94904	273.41388	32.43204	-614.74121	190.95511	1634.13501	-950.38788	199.10913	971.79938	-731.39612	367.48804	976.18939	-729.84265	-7.24836	1208.07813	-841.54053	-42.21552	1114.95398	-814.59076	29.22686	1083.04797	-915.56738	119.51757	1085.13489	-987.61664							235.03604	841.34015	1669.22668																					 
79	0.78	170.59581	454.09525	-790.52539	424.561	369.0838	-927.93842	543.27167	1123.71924	-789.03479	463.75198	1108.4082	-905.56995	136.09717	616.04913	-811.37457	424.90906	570.44952	-1064.39221	558.9408	1196.07288	-714.86841	324.71744	1636.99719	-973.60724	127.37783	1168.104	-1010.14734	515.44452	1288.53223	-754.98529	274.09781	1167.42542	-983.37622	399.09866	942.71631	-914.74878	265.11273	1349.83997	-964.40784	408.15778	1402.48596	-886.72906	179.05098	918.89423	-922.53552	454.20206	663.4679	-984.85712	308.37466	1580.66321	-844.86646	179.82033	1579.39856	-859.46045	239.49661	1432.51294	-857.36957	502.67331	1054.99219	-896.03821	484.47293	1064.94177	-975.75183	398.14706	120.67348	-902.83313	97.60877	1386.85693	-927.07349	307.95193	1277.63538	-758.16724	185.73241	256.2879	-628.50818	386.51013	231.51741	-801.59406	173.47002	1148.8064	-1090.22009	228.63731	129.79684	-515.99469	341.1636	230.7775	-753.90277	262.9303	1113.99756	-784.51367	263.00742	149.61279	-470.64664	273.85324	32.23814	-616.24518	192.6877	1641.09045	-989.00854	197.87029	977.43237	-772.89728	365.767	984.104	-769.69141	-5.20999	1214.93665	-888.49719	-41.94532	1121.6272	-863.23792	33.37272	1094.22864	-962.04718	125.50067	1100.7135	-1031.54553							237.16975	880.44116	1677.16833																					 
80	0.79	170.52962	463.02164	-816.74695	423.68869	371.98807	-990.14996	542.10889	1136.17639	-817.76208	465.61673	1120.33032	-936.31854	136.57848	623.87738	-846.19019	425.84531	586.89709	-1109.67957	555.93933	1208.23987	-743.59454	326.96558	1645.01624	-1013.24792	130.82361	1182.90588	-1051.09888	512.90674	1299.27661	-786.71057	277.11145	1175.98804	-1021.72351	399.00052	953.34222	-955.93805	267.81995	1358.25647	-1001.81903	409.22906	1411.04858	-921.92596	179.66878	926.51746	-965.97955	454.67596	678.30072	-1028.57825	311.03751	1589.94373	-883.71942	182.51312	1588.40283	-897.57404	241.13071	1440.64661	-895.14899	504.87659	1067.5498	-926.16034	488.28677	1077.00867	-1006.19531	392.37946	120.24574	-985.80847	100.38461	1395.60583	-967.32904	307.08615	1285.62952	-796.25354	183.68373	270.28137	-647.8894	383.95172	223.97083	-876.62738	179.61674	1167.13354	-1130.4425	224.04355	145.14903	-534.02667	339.24707	220.41023	-828.96735	261.3559	1121.49255	-824.61072	258.28116	167.25424	-491.07452	274.31201	31.93302	-617.53082	194.65736	1648.8009	-1027.93872	197.1041	984.0451	-816.06854	364.15701	992.7597	-810.17517	-3.20922	1223.33203	-934.79358	-41.1516	1129.46765	-910.61737	37.10904	1106.39502	-1007.68372	131.25201	1116.36353	-1074.19189							239.58403	919.99396	1686.0564																					 
